<svg viewBox="0 0 680 100" width="680" xmlns="http://www.w3.org/2000/svg">
  <defs>
    <linearGradient id="bg" x1="0" y1="0" x2="0" y2="1">
      <stop offset="0%" stop-color="#1e1108"/>
      <stop offset="100%" stop-color="#0d0803"/>
    </linearGradient>
    <linearGradient id="cd" x1="0" y1="0" x2="0" y2="1">
      <stop offset="0%" stop-color="#2c1c0c"/>
      <stop offset="100%" stop-color="#181005"/>
    </linearGradient>
    <filter id="glow">
      <feGaussianBlur stdDeviation="1.5" result="blur"/>
      <feMerge><feMergeNode in="blur"/><feMergeNode in="SourceGraphic"/></feMerge>
    </filter>
  </defs>

  <!-- Background -->
  <rect width="680" height="100" fill="url(#bg)"/>

  <!-- Top hot-metal accent -->
  <rect width="680" height="3" fill="#e07d2a" filter="url(#glow)"/>
  <rect y="3" width="680" height="5" fill="#e07d2a" fill-opacity="0.10"/>

  <!-- ═══ FORK (x=8, cx=88) ═══ -->
  <rect x="8" y="10" width="160" height="84" rx="5" fill="url(#cd)" stroke="#c46820" stroke-width="0.8"/>
  <!-- Chain link icon -->
  <ellipse cx="81" cy="34" rx="10" ry="6" fill="none" stroke="#e07d2a" stroke-width="2" transform="rotate(-35 81 34)"/>
  <ellipse cx="95" cy="44" rx="10" ry="6" fill="none" stroke="#e07d2a" stroke-width="2" transform="rotate(-35 95 44)"/>
  <text x="88" y="63" text-anchor="middle" font-family="Georgia,'Times New Roman',serif" font-size="13" font-weight="bold" fill="#f5943a" letter-spacing="2">FORK</text>
  <text x="88" y="76" text-anchor="middle" font-family="Georgia,'Times New Roman',serif" font-size="9.5" fill="#9e7040">Fork the harness</text>
  <text x="88" y="88" text-anchor="middle" font-family="Georgia,'Times New Roman',serif" font-size="9.5" fill="#9e7040">for your team</text>

  <!-- ═══ ADAPT (x=176, cx=256) ═══ -->
  <rect x="176" y="10" width="160" height="84" rx="5" fill="url(#cd)" stroke="#c46820" stroke-width="0.8"/>
  <!-- Gear icon (hexagon + inner circle) -->
  <polygon points="256,25 267,31 267,43 256,49 245,43 245,31" fill="none" stroke="#e07d2a" stroke-width="2" stroke-linejoin="round"/>
  <circle cx="256" cy="37" r="6" fill="none" stroke="#e07d2a" stroke-width="2"/>
  <circle cx="256" cy="37" r="1.5" fill="#e07d2a"/>
  <text x="256" y="63" text-anchor="middle" font-family="Georgia,'Times New Roman',serif" font-size="13" font-weight="bold" fill="#f5943a" letter-spacing="2">ADAPT</text>
  <text x="256" y="76" text-anchor="middle" font-family="Georgia,'Times New Roman',serif" font-size="9.5" fill="#9e7040">Rename, configure,</text>
  <text x="256" y="88" text-anchor="middle" font-family="Georgia,'Times New Roman',serif" font-size="9.5" fill="#9e7040">and extend</text>

  <!-- ═══ COLLABORATE (x=344, cx=424) ═══ -->
  <rect x="344" y="10" width="160" height="84" rx="5" fill="url(#cd)" stroke="#c46820" stroke-width="0.8"/>
  <!-- Two people -->
  <circle cx="416" cy="29" r="7" fill="none" stroke="#e07d2a" stroke-width="1.8"/>
  <path d="M404,49 C404,39 428,39 428,49" fill="none" stroke="#e07d2a" stroke-width="1.8" stroke-linecap="round"/>
  <circle cx="432" cy="32" r="6" fill="none" stroke="#e07d2a" stroke-width="1.5"/>
  <path d="M421,50 C421,42 443,42 443,50" fill="none" stroke="#e07d2a" stroke-width="1.5" stroke-linecap="round"/>
  <text x="424" y="63" text-anchor="middle" font-family="Georgia,'Times New Roman',serif" font-size="11" font-weight="bold" fill="#f5943a" letter-spacing="0.8">COLLABORATE</text>
  <text x="424" y="76" text-anchor="middle" font-family="Georgia,'Times New Roman',serif" font-size="9.5" fill="#9e7040">Multi-project teams.</text>
  <text x="424" y="88" text-anchor="middle" font-family="Georgia,'Times New Roman',serif" font-size="9.5" fill="#9e7040">One shared backbone.</text>

  <!-- ═══ EMPOWER (x=512, cx=592) ═══ -->
  <rect x="512" y="10" width="160" height="84" rx="5" fill="url(#cd)" stroke="#c46820" stroke-width="0.8"/>
  <!-- Shield + checkmark -->
  <path d="M592,24 L605,30 L605,41 L592,50 L579,41 L579,30 Z" fill="none" stroke="#e07d2a" stroke-width="2" stroke-linejoin="round"/>
  <path d="M585,37 L590,43 L599,33" fill="none" stroke="#e07d2a" stroke-width="2" stroke-linecap="round" stroke-linejoin="round"/>
  <text x="592" y="63" text-anchor="middle" font-family="Georgia,'Times New Roman',serif" font-size="12" font-weight="bold" fill="#f5943a" letter-spacing="1">EMPOWER</text>
  <text x="592" y="76" text-anchor="middle" font-family="Georgia,'Times New Roman',serif" font-size="9.5" fill="#9e7040">Build, ship, and</text>
  <text x="592" y="88" text-anchor="middle" font-family="Georgia,'Times New Roman',serif" font-size="9.5" fill="#9e7040">iterate faster.</text>

  <!-- Subtle vertical dividers -->
  <line x1="176" y1="18" x2="176" y2="86" stroke="#c46820" stroke-width="0.5" stroke-opacity="0.35"/>
  <line x1="344" y1="18" x2="344" y2="86" stroke="#c46820" stroke-width="0.5" stroke-opacity="0.35"/>
  <line x1="512" y1="18" x2="512" y2="86" stroke="#c46820" stroke-width="0.5" stroke-opacity="0.35"/>

  <!-- Bottom ember line -->
  <rect y="97" width="680" height="3" fill="#c46820" fill-opacity="0.45"/>
</svg>
