<svg viewBox="0 0 680 100" width="680" xmlns="http://www.w3.org/2000/svg">
  <defs>
    <linearGradient id="bg" x1="0" y1="0" x2="0" y2="1">
      <stop offset="0%" stop-color="#1e1108"/>
      <stop offset="100%" stop-color="#0d0803"/>
    </linearGradient>
    <linearGradient id="cd" x1="0" y1="0" x2="0" y2="1">
      <stop offset="0%" stop-color="#2c1c0c"/>
      <stop offset="100%" stop-color="#181005"/>
    </linearGradient>
    <filter id="glow">
      <feGaussianBlur stdDeviation="1.5" result="blur"/>
      <feMerge><feMergeNode in="blur"/><feMergeNode in="SourceGraphic"/></feMerge>
    </filter>
  </defs>

  <!-- Background -->
  <rect width="680" height="100" fill="url(#bg)"/>

  <!-- Top hot-metal accent -->
  <rect width="680" height="3" fill="#e07d2a" filter="url(#glow)"/>
  <rect y="3" width="680" height="5" fill="#e07d2a" fill-opacity="0.10"/>

  <!-- ═══ HARNESS (x=8, cx=88) ═══ -->
  <rect x="8" y="10" width="160" height="84" rx="5" fill="url(#cd)" stroke="#c46820" stroke-width="0.8"/>
  <!-- Chain link icon (harness = link) -->
  <ellipse cx="81" cy="34" rx="10" ry="6" fill="none" stroke="#e07d2a" stroke-width="2" transform="rotate(-35 81 34)"/>
  <ellipse cx="95" cy="44" rx="10" ry="6" fill="none" stroke="#e07d2a" stroke-width="2" transform="rotate(-35 95 44)"/>
  <text x="88" y="63" text-anchor="middle" font-family="Georgia,'Times New Roman',serif" font-size="13" font-weight="bold" fill="#f5943a" letter-spacing="2">HARNESS</text>
  <text x="88" y="76" text-anchor="middle" font-family="Georgia,'Times New Roman',serif" font-size="9.5" fill="#9e7040">Harness-ify a project</text>
  <text x="88" y="88" text-anchor="middle" font-family="Georgia,'Times New Roman',serif" font-size="9.5" fill="#9e7040">— raise its floor</text>

  <!-- ═══ FORGE (x=176, cx=256) ═══ -->
  <rect x="176" y="10" width="160" height="84" rx="5" fill="url(#cd)" stroke="#c46820" stroke-width="0.8"/>
  <!-- Hammer icon -->
  <rect x="247" y="28" width="18" height="7" rx="1.5" fill="none" stroke="#e07d2a" stroke-width="2"/>
  <line x1="256" y1="35" x2="256" y2="50" stroke="#e07d2a" stroke-width="2.4" stroke-linecap="round"/>
  <text x="256" y="63" text-anchor="middle" font-family="Georgia,'Times New Roman',serif" font-size="13" font-weight="bold" fill="#f5943a" letter-spacing="2">FORGE</text>
  <text x="256" y="76" text-anchor="middle" font-family="Georgia,'Times New Roman',serif" font-size="9.5" fill="#9e7040">Temper it through</text>
  <text x="256" y="88" text-anchor="middle" font-family="Georgia,'Times New Roman',serif" font-size="9.5" fill="#9e7040">adversarial gates</text>

  <!-- ═══ ACCELERATE (x=344, cx=424) ═══ -->
  <rect x="344" y="10" width="160" height="84" rx="5" fill="url(#cd)" stroke="#c46820" stroke-width="0.8"/>
  <!-- Forward chevrons -->
  <path d="M414,29 l9,8 l-9,8 M426,29 l9,8 l-9,8" fill="none" stroke="#e07d2a" stroke-width="2.6" stroke-linecap="round" stroke-linejoin="round"/>
  <text x="424" y="63" text-anchor="middle" font-family="Georgia,'Times New Roman',serif" font-size="11" font-weight="bold" fill="#f5943a" letter-spacing="0.8">ACCELERATE</text>
  <text x="424" y="76" text-anchor="middle" font-family="Georgia,'Times New Roman',serif" font-size="9.5" fill="#9e7040">Pass it through —</text>
  <text x="424" y="88" text-anchor="middle" font-family="Georgia,'Times New Roman',serif" font-size="9.5" fill="#9e7040">it comes out faster</text>

  <!-- ═══ COMPOUND (x=512, cx=592) ═══ -->
  <rect x="512" y="10" width="160" height="84" rx="5" fill="url(#cd)" stroke="#c46820" stroke-width="0.8"/>
  <!-- Rising bars (compounding gains) -->
  <rect x="581" y="40" width="6" height="10" fill="#e07d2a"/>
  <rect x="589" y="34" width="6" height="16" fill="#e07d2a"/>
  <rect x="597" y="27" width="6" height="23" fill="#e07d2a"/>
  <text x="592" y="63" text-anchor="middle" font-family="Georgia,'Times New Roman',serif" font-size="12" font-weight="bold" fill="#f5943a" letter-spacing="1">COMPOUND</text>
  <text x="592" y="76" text-anchor="middle" font-family="Georgia,'Times New Roman',serif" font-size="9.5" fill="#9e7040">Gains compound across</text>
  <text x="592" y="88" text-anchor="middle" font-family="Georgia,'Times New Roman',serif" font-size="9.5" fill="#9e7040">your whole portfolio</text>

  <!-- Subtle vertical dividers -->
  <line x1="176" y1="18" x2="176" y2="86" stroke="#c46820" stroke-width="0.5" stroke-opacity="0.35"/>
  <line x1="344" y1="18" x2="344" y2="86" stroke="#c46820" stroke-width="0.5" stroke-opacity="0.35"/>
  <line x1="512" y1="18" x2="512" y2="86" stroke="#c46820" stroke-width="0.5" stroke-opacity="0.35"/>

  <!-- Bottom ember line -->
  <rect y="97" width="680" height="3" fill="#c46820" fill-opacity="0.45"/>
</svg>
